<svg xmlns="http://www.w3.org/2000/svg" width="272.209" height="481.185" viewBox="0 0 272.209 481.185">
  <g id="Group_927" data-name="Group 927" transform="translate(-673.76 -152.674)" opacity="0.15">
    <path id="Path_294" data-name="Path 294" d="M941.393,153.111a4.039,4.039,0,0,1,3.2,6.575c-36.7,43.642-57.282,107.386-98.034,125.81-36.963,16.7-141.851,18.617-169.427,18.826a3.141,3.141,0,0,1-2.725-5c7.536-9.85,22.38-33.653,49.257-80.745C762.886,149.819,905.864,151.67,941.393,153.111Z" transform="translate(0 0)" fill="#d2ba92"/>
    <path id="Path_295" data-name="Path 295" d="M941.395,190.849a4.037,4.037,0,0,1,3.2,6.575c-36.7,43.642-57.281,107.386-98.034,125.81-36.963,16.7-141.851,18.617-169.427,18.826a3.138,3.138,0,0,1-2.715-5c7.527-9.85,22.38-33.653,49.248-80.745C762.9,187.557,905.864,189.409,941.395,190.849Z" transform="translate(0.043 291.797)" fill="#d2ba92"/>
    <path id="Path_296" data-name="Path 296" d="M940.8,306.919c3.5-.1,5.4-3.475,3.222-5.772-36.482-38.6-56.75-94.838-97.423-111.263-36.875-14.9-141.746-17.089-169.331-17.411-2.742-.026-4.34,2.532-2.742,4.4,7.483,8.706,22.214,29.741,48.855,71.34C762.276,308.954,905.262,308.02,940.8,306.919Z" transform="translate(1.02 153.085)" fill="#d2ba92"/>
  </g>
</svg>
