<svg id="Layer_2" data-name="Layer 2" xmlns="http://www.w3.org/2000/svg" xmlns:xlink="http://www.w3.org/1999/xlink" width="52.23" height="58.297" viewBox="0 0 52.23 58.297">
  <defs>
    <clipPath id="clip-path">
      <rect id="Rectangle_47" data-name="Rectangle 47" width="52.23" height="58.297" fill="none"/>
    </clipPath>
  </defs>
  <g id="Layer_1" data-name="Layer 1">
    <g id="Group_857" data-name="Group 857" clip-path="url(#clip-path)">
      <path id="Path_783" data-name="Path 783" d="M11.022,0A11.053,11.053,0,0,0,0,11.022V58.3H41.239A11.047,11.047,0,0,0,52.23,47.275V0Z" transform="translate(0)" fill="#fff"/>
      <path id="Path_784" data-name="Path 784" d="M13.138,5.66a7.5,7.5,0,0,0-7.5,7.5V37.314H43.755A7.179,7.179,0,0,0,50.8,30.147V5.66Z" transform="translate(-2.116 -2.123)" fill="#79b61d"/>
      <path id="Path_785" data-name="Path 785" d="M55.991,77.961a7.5,7.5,0,0,0,7.5-7.5V61.84H39.32V77.961Z" transform="translate(-14.752 -23.2)" fill="#e31919"/>
      <path id="Path_786" data-name="Path 786" d="M17.962,38.06h1.312V44.7a1.293,1.293,0,0,1-1.412,1.362,1.637,1.637,0,0,1-1.643-1.006L14.276,40.99a4.274,4.274,0,0,1,.081.625v4.374H13.07V38.06h1.25l3.243,6.717c.137.306.425.269.425,0Z" transform="translate(-4.903 -14.279)" fill="#fff"/>
      <path id="Path_787" data-name="Path 787" d="M27.736,39.191c-.537,0-.806.275-.806.894v3.886c0,.625.269.894.806.894h1.581c.537,0,.806-.275.806-.894V40.085c0-.625-.269-.894-.806-.894Zm3.7.756v4.1a1.818,1.818,0,0,1-2.024,1.943H27.636a1.806,1.806,0,0,1-2-1.943v-4.1a1.812,1.812,0,0,1,2-1.875h1.787a1.818,1.818,0,0,1,2.024,1.875" transform="translate(-9.616 -14.279)" fill="#fff"/>
      <path id="Path_788" data-name="Path 788" d="M41.473,41.464a1.012,1.012,0,0,0,.562-.806v-.581c0-.625-.275-.894-.812-.894H38.886V43.17ZM37.58,38.053h3.749a1.818,1.818,0,0,1,2.024,1.874v.85A1.768,1.768,0,0,1,42.46,42.2l-1.25.812,2.256,2.974h-1.5l-1.775-2.293-1.318.869v1.425H37.58Z" transform="translate(-14.099 -14.272)" fill="#fff"/>
      <path id="Path_789" data-name="Path 789" d="M53.681,41.329h1.306v2.718a1.812,1.812,0,0,1-2.018,1.943H51.182a1.806,1.806,0,0,1-2.006-1.943v-4.1a1.812,1.812,0,0,1,2.006-1.874h3.124V39.2H51.288c-.531,0-.806.275-.806.894v3.886c0,.625.275.894.806.894h1.581c.537,0,.812-.275.812-.894V42.672H51.807V41.329Z" transform="translate(-18.447 -14.28)" fill="#fff"/>
      <path id="Path_790" data-name="Path 790" d="M21.72,11.595V22.1c0,.287-.287.331-.425,0l-5-10.535H13.11V25.585h2.949V17.993a1.468,1.468,0,0,0,0-.162v-.575l3.124,6.761a2.674,2.674,0,0,0,2.356,1.668h.4a3.274,3.274,0,0,0,.712-.081,2.768,2.768,0,0,0,1.218-.587,2.662,2.662,0,0,0,.881-2.1V11.595Z" transform="translate(-4.918 -4.341)" fill="#fff"/>
      <path id="Path_791" data-name="Path 791" d="M65.567,44.889H63.1c-.531,0-.812-.275-.812-.894V42.684h3.274V41.322H62.293v-1.25c0-.625.281-.894.812-.894h2.462V38.054H63a1.818,1.818,0,0,0-2.012,1.875v4.1A1.812,1.812,0,0,0,63,45.97h2.568Z" transform="translate(-22.878 -14.273)" fill="#fff"/>
    </g>
    <path id="Path_792" data-name="Path 792" d="M57.74,11.68v2.968h3.493V25.676h3.024V14.648h3.468V11.68Z" transform="translate(-21.662 -4.382)" fill="#fff"/>
    <path id="Path_793" data-name="Path 793" d="M38.129,11.71l2.762,5.2,3.005-5.2h3.593l-4.911,8.51v5.417H39.429V20.22l-4.9-8.51Z" transform="translate(-12.955 -4.393)" fill="#fff"/>
    <rect id="Rectangle_48" data-name="Rectangle 48" width="9.397" height="16.121" transform="translate(3.537 38.64)" fill="#e31919"/>
    <rect id="Rectangle_49" data-name="Rectangle 49" width="4.761" height="16.121" transform="translate(16.364 38.64)" fill="#004495"/>
  </g>
</svg>
