<svg xmlns="http://www.w3.org/2000/svg" width="204" height="36.788" viewBox="0 0 204 36.788">
  <g id="Group_952" data-name="Group 952" transform="translate(-183.643 -255.453)">
    <g id="Group_602" data-name="Group 602" transform="translate(183.643 260.53)">
      <path id="Path_18" data-name="Path 18" d="M196.229,275.05H193.1a.314.314,0,0,1-.314-.314V274.2a4.009,4.009,0,0,0-.608-2.23,2.248,2.248,0,0,0-2.045-.94,2.369,2.369,0,0,0-1.253.295,2.482,2.482,0,0,0-.774.737,3.144,3.144,0,0,0-.405,1.088,7.127,7.127,0,0,0-.111,1.272,12.552,12.552,0,0,0,.055,1.29,2.466,2.466,0,0,0,.277.921,2.048,2.048,0,0,0,.645.7,5.844,5.844,0,0,0,1.161.59l2.875,1.143a7.133,7.133,0,0,1,2.027,1.124,4.851,4.851,0,0,1,1.216,1.493,6.994,6.994,0,0,1,.553,2.009,19.859,19.859,0,0,1,.148,2.562,13.5,13.5,0,0,1-.332,3.077,6.482,6.482,0,0,1-1.069,2.414,5.3,5.3,0,0,1-2.027,1.621,7.153,7.153,0,0,1-3.059.59,6.69,6.69,0,0,1-2.543-.48,6.028,6.028,0,0,1-2.027-1.326,6.449,6.449,0,0,1-1.346-1.972,5.99,5.99,0,0,1-.5-2.451v-1.086a.314.314,0,0,1,.314-.314h3.131a.314.314,0,0,1,.314.314v.865a3.072,3.072,0,0,0,.608,1.862,2.367,2.367,0,0,0,2.045.829,3.3,3.3,0,0,0,1.493-.277,1.99,1.99,0,0,0,.829-.793,2.906,2.906,0,0,0,.35-1.234q.055-.718.055-1.6a15.956,15.956,0,0,0-.073-1.7,2.982,2.982,0,0,0-.282-1.045.545.545,0,0,0-.028-.048,2.094,2.094,0,0,0-.666-.64,8.881,8.881,0,0,0-1.124-.553l-2.69-1.106a5.96,5.96,0,0,1-3.262-2.635,9.063,9.063,0,0,1-.829-4.11,9.523,9.523,0,0,1,.405-2.8,6.373,6.373,0,0,1,1.216-2.285,5.575,5.575,0,0,1,1.971-1.529,6.584,6.584,0,0,1,2.856-.571,6.235,6.235,0,0,1,2.562.516,6.615,6.615,0,0,1,2.009,1.364,5.7,5.7,0,0,1,1.7,4.054v1.529A.314.314,0,0,1,196.229,275.05Z" transform="translate(-183.643 -267.273)" fill="#fff"/>
      <path id="Path_19" data-name="Path 19" d="M223.947,293.716V268.1a.314.314,0,0,1,.314-.314h3.131a.314.314,0,0,1,.314.314v25.614a.314.314,0,0,1-.314.314h-3.131A.314.314,0,0,1,223.947,293.716Z" transform="translate(-206.636 -267.567)" fill="#fff"/>
      <path id="Path_20" data-name="Path 20" d="M243.742,273.686a6.7,6.7,0,0,1,.553-2.8,5.9,5.9,0,0,1,1.474-2.027,6.235,6.235,0,0,1,2.008-1.179,6.691,6.691,0,0,1,6.579,1.179,6.171,6.171,0,0,1,1.438,2.027,6.714,6.714,0,0,1,.553,2.8V274.7a.314.314,0,0,1-.314.314H252.9a.314.314,0,0,1-.314-.314v-1.012a2.5,2.5,0,0,0-.755-2.009,2.8,2.8,0,0,0-3.575,0,2.5,2.5,0,0,0-.756,2.009v13.858a2.5,2.5,0,0,0,.756,2.008,2.8,2.8,0,0,0,3.575,0,2.5,2.5,0,0,0,.755-2.008v-4.625a.314.314,0,0,0-.314-.314h-2.357a.314.314,0,0,1-.314-.314V279.6a.314.314,0,0,1,.314-.314h6.117a.314.314,0,0,1,.314.314v7.942a6.651,6.651,0,0,1-.553,2.838,5.851,5.851,0,0,1-1.438,1.953,6.327,6.327,0,0,1-2.046,1.216,6.538,6.538,0,0,1-4.533,0,5.91,5.91,0,0,1-2.008-1.216,5.608,5.608,0,0,1-1.474-1.953,6.637,6.637,0,0,1-.553-2.838Z" transform="translate(-217.929 -267.273)" fill="#fff"/>
      <path id="Path_21" data-name="Path 21" d="M283.873,293.716V268.1a.314.314,0,0,1,.314-.314h5.252a6.465,6.465,0,0,1,4.92,1.769,7.005,7.005,0,0,1,1.677,5.012v12.273q0,3.686-1.787,5.436a7.05,7.05,0,0,1-5.142,1.751h-4.92A.314.314,0,0,1,283.873,293.716Zm3.759-22.076v18.538a.314.314,0,0,0,.314.314h1.418a2.786,2.786,0,0,0,2.248-.793,3.834,3.834,0,0,0,.664-2.488V274.569a3.97,3.97,0,0,0-.627-2.4,2.676,2.676,0,0,0-2.285-.848h-1.418A.314.314,0,0,0,287.632,271.64Z" transform="translate(-240.823 -267.567)" fill="#fff"/>
      <path id="Path_22" data-name="Path 22" d="M318.846,293.647l5.72-25.613a.314.314,0,0,1,.306-.246h2.63a.314.314,0,0,1,.306.246l5.72,25.613a.314.314,0,0,1-.306.383h-3.11a.314.314,0,0,1-.308-.254l-1.006-5.132a.314.314,0,0,0-.308-.253h-4.606a.314.314,0,0,0-.308.253l-1.006,5.132a.314.314,0,0,1-.308.254h-3.11A.314.314,0,0,1,318.846,293.647Zm8.822-8.795a.314.314,0,0,0,.308-.374l-1.77-9.135h-.074l-1.77,9.135a.314.314,0,0,0,.308.374Z" transform="translate(-260.77 -267.567)" fill="#fff"/>
      <path id="Path_23" data-name="Path 23" d="M360.591,293.716V268.1a.314.314,0,0,1,.314-.314h3.131a.314.314,0,0,1,.314.314v21.855a.314.314,0,0,0,.314.314h6.817a.314.314,0,0,1,.314.314v3.131a.314.314,0,0,1-.314.314H360.9A.314.314,0,0,1,360.591,293.716Z" transform="translate(-284.589 -267.567)" fill="#fff"/>
    </g>
    <path id="Path_24" data-name="Path 24" d="M474.689,293.791V268.107a.317.317,0,0,1,.317-.317h3.08a.317.317,0,0,1,.3.213l4.768,13.722h.074L487.959,268a.318.318,0,0,1,.3-.213h3.116a.317.317,0,0,1,.317.317v25.684a.317.317,0,0,1-.317.317h-3.136a.317.317,0,0,1-.317-.317V278.1h-.074L484.186,289.2a.316.316,0,0,1-.3.218h-1.426a.317.317,0,0,1-.3-.219L478.533,278.1h-.074v15.688a.317.317,0,0,1-.317.317h-3.136A.317.317,0,0,1,474.689,293.791Z" transform="translate(-166.037 -7.038)" fill="#fff"/>
    <path id="Path_25" data-name="Path 25" d="M564.333,293.791V268.107a.317.317,0,0,1,.317-.317h3.136a.317.317,0,0,1,.317.317V290.02a.317.317,0,0,0,.317.317h6.833a.317.317,0,0,1,.317.317v3.136a.317.317,0,0,1-.317.317h-10.6A.317.317,0,0,1,564.333,293.791Z" transform="translate(-217.177 -7.038)" fill="#fff"/>
    <path id="Path_26" data-name="Path 26" d="M598.24,293.791V268.107a.317.317,0,0,1,.317-.317h3.136a.317.317,0,0,1,.317.317V290.02a.317.317,0,0,0,.317.317h6.833a.317.317,0,0,1,.317.317v3.136a.317.317,0,0,1-.317.317h-10.6A.317.317,0,0,1,598.24,293.791Z" transform="translate(-236.521 -7.038)" fill="#fff"/>
    <path id="Path_27" data-name="Path 27" d="M632.433,293.791V268.107a.317.317,0,0,1,.317-.317h10.6a.317.317,0,0,1,.317.317v2.914a.317.317,0,0,1-.317.317H636.52a.317.317,0,0,0-.317.317v7.091a.317.317,0,0,0,.317.317h5.871a.317.317,0,0,1,.317.317V282.3a.317.317,0,0,1-.317.317H636.52a.317.317,0,0,0-.317.317v7.091a.317.317,0,0,0,.317.317h6.833a.317.317,0,0,1,.317.317v3.136a.317.317,0,0,1-.317.317h-10.6A.317.317,0,0,1,632.433,293.791Z" transform="translate(-256.027 -7.038)" fill="#fff"/>
    <g id="Group_603" data-name="Group 603" transform="translate(277.928 255.453)">
      <path id="Path_28" data-name="Path 28" d="M424.244,255.487a.306.306,0,0,1,.252.5c-2.892,3.317-4.513,8.163-7.724,9.563-2.912,1.27-11.176,1.414-13.349,1.43a.239.239,0,0,1-.214-.381,69.535,69.535,0,0,0,3.88-6.138C410.179,255.235,421.445,255.377,424.244,255.487Z" transform="translate(-403.158 -255.453)" fill="#fff"/>
      <path id="Path_29" data-name="Path 29" d="M424.258,314.3a.306.306,0,0,1,.252.5c-2.891,3.317-4.512,8.163-7.724,9.563-2.912,1.27-11.176,1.414-13.349,1.43a.239.239,0,0,1-.214-.38,69.586,69.586,0,0,0,3.88-6.138C410.193,314.048,421.459,314.19,424.258,314.3Z" transform="translate(-403.166 -289.005)" fill="#fff"/>
      <path id="Path_30" data-name="Path 30" d="M424.4,296.328a.306.306,0,0,0,.254-.5c-2.874-3.327-4.47-8.175-7.674-9.59-2.905-1.283-11.169-1.47-13.342-1.5a.239.239,0,0,0-.216.379,69.432,69.432,0,0,1,3.848,6.149C410.337,296.507,421.6,296.424,424.4,296.328Z" transform="translate(-403.282 -272.163)" fill="#fff"/>
    </g>
    <g id="Group_604" data-name="Group 604" transform="translate(330.3 260.53)">
      <path id="Path_31" data-name="Path 31" d="M528.646,279.278a.317.317,0,0,0,.214-.3V273.7a2.506,2.506,0,0,1,.758-2.014,2.808,2.808,0,0,1,3.586,0,2.508,2.508,0,0,1,.758,2.014v3.783a.318.318,0,0,0,.317.317l3.136-.926c.19-.064.317-.142.317-.317V273.7a6.723,6.723,0,0,0-.554-2.809,6.194,6.194,0,0,0-1.442-2.033,6.639,6.639,0,0,0-6.6-1.182,6.254,6.254,0,0,0-2.014,1.182,5.94,5.94,0,0,0-1.479,2.033,6.722,6.722,0,0,0-.554,2.809v6.249a.317.317,0,0,0,.421.3Z" transform="translate(-525.09 -267.273)" fill="#fff"/>
      <path id="Path_32" data-name="Path 32" d="M534.182,299.67a.317.317,0,0,0-.221.3v5.535a2.506,2.506,0,0,1-.758,2.014,2.808,2.808,0,0,1-3.586,0,2.5,2.5,0,0,1-.758-2.014v-4.164a.317.317,0,0,0-.317-.317l-3.136.912c-.178.057-.317.142-.317.317v3.252a6.661,6.661,0,0,0,.554,2.846,5.641,5.641,0,0,0,1.479,1.959,5.924,5.924,0,0,0,2.014,1.22,6.556,6.556,0,0,0,4.546,0,6.336,6.336,0,0,0,2.052-1.22,5.87,5.87,0,0,0,1.442-1.959,6.662,6.662,0,0,0,.554-2.846v-6.532a.317.317,0,0,0-.413-.3Z" transform="translate(-525.09 -285.178)" fill="#fff"/>
    </g>
  </g>
</svg>
