<svg id="Group_879" data-name="Group 879" xmlns="http://www.w3.org/2000/svg" width="77" height="77" viewBox="0 0 77 77">
  <path id="Path_828" data-name="Path 828" d="M77,38.5A38.5,38.5,0,1,1,38.5,0,38.51,38.51,0,0,1,77,38.5Z" fill="#87565b" fill-rule="evenodd"/>
  <path id="Path_829" data-name="Path 829" d="M51.174,20.434,45.88,25.728a7.9,7.9,0,0,0-2.727-.962,14.463,14.463,0,0,0,1.6-1.444l7.379-7.379a.794.794,0,1,0-1.123-1.123l-4.171,4.171a4.945,4.945,0,0,0,.16-1.6.758.758,0,0,0-.8-.8,4.945,4.945,0,0,0-1.6.16l4.331-4.331a.794.794,0,1,0-1.123-1.123L40.426,18.67l-.16.16a11.666,11.666,0,0,0-1.283,1.444,7.087,7.087,0,0,0-.963-2.567l5.294-5.294a.794.794,0,0,0-1.123-1.123l-5.133,5.133a2.214,2.214,0,0,1-.481-.642.775.775,0,0,0-1.123,0A9.128,9.128,0,0,0,32.886,21.4c-.321-.321-.481-.8-.8-1.123a.775.775,0,0,0-1.123,0,8.676,8.676,0,0,0-2.567,5.615c-.321-.321-.481-.8-.962-1.123a.775.775,0,0,0-1.123,0,9.128,9.128,0,0,0-2.567,5.615c-.321-.321-.481-.8-.8-1.123a.775.775,0,0,0-1.123,0,8.856,8.856,0,0,0-2.567,6.256,9.528,9.528,0,0,0,1.123,4.171l-8.5,8.5a2.326,2.326,0,0,0,0,3.369,2.412,2.412,0,0,0,1.765.642,2.412,2.412,0,0,0,1.765-.642l8.5-8.5a8.324,8.324,0,0,0,4.331,1.123,8.733,8.733,0,0,0,6.256-2.567c.16-.16.16-.321.16-.642s-.16-.481-.16-.642a2.877,2.877,0,0,0-1.123-.8,8.337,8.337,0,0,0,5.615-2.567c.16-.16.16-.321.16-.642s-.16-.481-.16-.642a2.877,2.877,0,0,0-1.123-.8,8.676,8.676,0,0,0,5.615-2.567c.16-.16.16-.321.16-.642s-.16-.481-.16-.642a6.977,6.977,0,0,0-1.123-.963,8.676,8.676,0,0,0,5.615-2.567c.16-.16.16-.321.16-.642s-.16-.481-.16-.642c-.16-.16-.481-.321-.642-.481l5.133-5.133a.775.775,0,0,0,0-1.123c-.321-.321-.962.642-1.283.963Zm-24.865,17a2.877,2.877,0,0,0,1.123.8,5.86,5.86,0,0,0-2.406.481,6.437,6.437,0,0,0,.481-2.406A4.875,4.875,0,0,0,26.309,37.439ZM30.8,32.786a2.877,2.877,0,0,0,1.123.8,6.437,6.437,0,0,0-2.406.481A6.437,6.437,0,0,0,30,31.664,2.877,2.877,0,0,0,30.8,32.786Zm4.492-4.492a2.877,2.877,0,0,0,1.123.8,5.86,5.86,0,0,0-2.406.481,6.437,6.437,0,0,0,.481-2.406A6.792,6.792,0,0,0,35.293,28.295ZM45.4,18.189a7.5,7.5,0,0,1-6.577,6.577A7.828,7.828,0,0,1,45.4,18.189Zm-9.465-.642a7.666,7.666,0,0,1,1.6,4.492,6.724,6.724,0,0,1-1.6,4.492,7.666,7.666,0,0,1-1.6-4.492A7.666,7.666,0,0,1,35.934,17.547ZM31.443,22.2a7.231,7.231,0,0,1,0,8.983A7.231,7.231,0,0,1,31.443,22.2Zm-4.652,4.492a7.666,7.666,0,0,1,1.6,4.492,6.724,6.724,0,0,1-1.6,4.492,7.666,7.666,0,0,1-1.6-4.492A7.666,7.666,0,0,1,26.791,26.691ZM22.3,31.182a7.666,7.666,0,0,1,1.6,4.492,6.724,6.724,0,0,1-1.6,4.492,7.666,7.666,0,0,1-1.6-4.492A7.666,7.666,0,0,1,22.3,31.182ZM13.957,50.753a.794.794,0,0,1-1.123-1.123l8.342-8.342c.16.16.321.481.481.642a2.214,2.214,0,0,0,.642.481l-8.342,8.342Zm9.625-9.3a7.232,7.232,0,0,1,8.983,0A7.708,7.708,0,0,1,23.582,41.449ZM28.074,36.8a7.231,7.231,0,0,1,8.983,0A7.232,7.232,0,0,1,28.074,36.8Zm4.492-4.492a7.232,7.232,0,0,1,8.983,0A7.232,7.232,0,0,1,32.566,32.305Zm4.492-4.492a7.232,7.232,0,0,1,8.983,0,7.708,7.708,0,0,1-8.983,0Z" transform="translate(6.736 6.676)" fill="#fff"/>
</svg>
